<?xml version="1.0" encoding="UTF-8" standalone="no"?>
<svg width="13px" height="17px" viewBox="0 0 13 17" version="1.1" xmlns="http://www.w3.org/2000/svg" xmlns:xlink="http://www.w3.org/1999/xlink" xmlns:sketch="http://www.bohemiancoding.com/sketch/ns">
    <!-- Generator: Sketch 3.3.1 (12002) - http://www.bohemiancoding.com/sketch -->
    <title>Imported Layers Copy 3</title>
    <desc>Created with Sketch.</desc>
    <defs></defs>
    <g id="invoices-page" stroke="none" stroke-width="1" fill="none" fill-rule="evenodd" sketch:type="MSPage">
        <g id="icon-copy" sketch:type="MSLayerGroup" transform="translate(-109.000000, 0.000000)" fill="#FFFFFF">
            <path d="M116.09675,12.2964286 L120.811036,6.79642857 C121.009821,6.56425 121.055393,6.23739286 120.928107,5.95728571 C120.799643,5.67875 120.521107,5.5 120.214286,5.5 L117.857143,5.5 L117.857143,0.785714286 C117.857143,0.351214286 117.505143,0 117.071429,0 L113.928571,0 C113.494857,0 113.142857,0.351214286 113.142857,0.785714286 L113.142857,5.5 L110.785714,5.5 C110.478893,5.5 110.200357,5.67875 110.071893,5.95728571 C110.023571,6.06217857 110,6.17414286 110,6.28571429 C110,6.46957143 110.064821,6.65146429 110.188964,6.79642857 L114.90325,12.2964286 C115.052536,12.4708571 115.270571,12.5714286 115.5,12.5714286 C115.729429,12.5714286 115.947464,12.4708571 116.09675,12.2964286 L116.09675,12.2964286 Z M112.49425,7.07142857 L113.928571,7.07142857 C114.362679,7.07142857 114.714286,6.71982143 114.714286,6.28571429 L114.714286,1.57142857 L116.285714,1.57142857 L116.285714,6.28571429 C116.285714,6.71982143 116.637714,7.07142857 117.071429,7.07142857 L118.50575,7.07142857 L115.5,10.5784643 L112.49425,7.07142857 Z M109,15 L122,15 L122,16.7 L109,16.7 L109,15 Z" id="Imported-Layers-Copy-3" sketch:type="MSShapeGroup"></path>
        </g>
    </g>
</svg>