<?xml version="1.0" encoding="UTF-8" standalone="no"?>
<svg width="16px" height="12px" viewBox="0 0 16 12" version="1.1" xmlns="http://www.w3.org/2000/svg" xmlns:xlink="http://www.w3.org/1999/xlink" xmlns:sketch="http://www.bohemiancoding.com/sketch/ns">
    <!-- Generator: Sketch 3.3.1 (12002) - http://www.bohemiancoding.com/sketch -->
    <title>Imported Layers</title>
    <desc>Created with Sketch.</desc>
    <defs></defs>
    <g id="invoices-page" stroke="none" stroke-width="1" fill="none" fill-rule="evenodd" sketch:type="MSPage">
        <g id="icon-copy" sketch:type="MSLayerGroup" transform="translate(-215.000000, -3.000000)" fill="#FFFFFF">
            <path d="M231,4 C231,3.951 230.9785,3.9095 230.9725,3.863 C230.963,3.7925 230.955,3.7235 230.9305,3.6565 C230.905,3.587 230.8655,3.5295 230.826,3.469 C230.801,3.4295 230.79,3.385 230.759,3.349 C230.75,3.3395 230.7385,3.336 230.7305,3.3265 C230.6795,3.2725 230.619,3.2345 230.5585,3.1925 C230.511,3.1595 230.4675,3.1205 230.416,3.0965 C230.3625,3.072 230.303,3.0645 230.244,3.0495 C230.175,3.0315 230.1095,3.01 230.038,3.008 C230.0245,3.0075 230.0135,3 230,3 L216,3 C215.9865,3 215.9755,3.0075 215.962,3.008 C215.8915,3.01 215.825,3.0315 215.757,3.049 C215.698,3.0645 215.6375,3.072 215.584,3.0965 C215.5325,3.12 215.49,3.159 215.4425,3.192 C215.382,3.2345 215.3205,3.2725 215.2695,3.3265 C215.2615,3.336 215.249,3.3395 215.241,3.349 C215.21,3.385 215.199,3.4295 215.174,3.469 C215.1345,3.53 215.0945,3.587 215.0695,3.6555 C215.044,3.7235 215.037,3.7925 215.0275,3.8635 C215.0215,3.9095 215,3.9515 215,4 L215,14 C215,14.1305 215.0265,14.2595 215.077,14.382 C215.1785,14.6265 215.373,14.8215 215.618,14.923 C215.74,14.9735 215.87,15 216,15 L230,15 C230.13,15 230.2595,14.9735 230.382,14.923 C230.627,14.8215 230.8215,14.6265 230.923,14.382 C230.9735,14.2595 231,14.13 231,14 L231,4 L231,4 Z M217,6.174 L219.914,8.672 L217,11.586 L217,6.174 L217,6.174 Z M223,8.683 L218.703,5 L227.297,5 L223,8.683 L223,8.683 Z M221.4375,9.977 L222.3495,10.7595 C222.536,10.92 222.7685,11 223,11 C223.2315,11 223.464,10.92 223.6505,10.7595 L224.5625,9.977 L227.586,13 L218.414,13 L221.4375,9.977 L221.4375,9.977 Z M226.086,8.672 L229,6.174 L229,11.586 L226.086,8.672 L226.086,8.672 Z" id="Imported-Layers" sketch:type="MSShapeGroup"></path>
        </g>
    </g>
</svg>