<?xml version="1.0" encoding="UTF-8" standalone="no"?>
<svg width="16px" height="16px" viewBox="0 0 16 16" version="1.1" xmlns="http://www.w3.org/2000/svg" xmlns:xlink="http://www.w3.org/1999/xlink" xmlns:sketch="http://www.bohemiancoding.com/sketch/ns">
    <!-- Generator: Sketch 3.3.1 (12002) - http://www.bohemiancoding.com/sketch -->
    <title>Imported Layers</title>
    <desc>Created with Sketch.</desc>
    <defs></defs>
    <g id="invoices-page" stroke="none" stroke-width="1" fill="none" fill-rule="evenodd" sketch:type="MSPage">
        <g id="icon-copy" sketch:type="MSLayerGroup" transform="translate(-161.000000, -1.000000)" fill="#FFFFFF">
            <path d="M176,7 L173,7 L173,2 C173,1.447 172.553,1 172,1 L166,1 C165.447,1 165,1.447 165,2 L165,7 L162,7 C161.447,7 161,7.447 161,8 L161,15 C161,15.553 161.447,16 162,16 L164,16 C164,16.553 164.447,17 165,17 L173,17 C173.553,17 174,16.553 174,16 L176,16 C176.553,16 177,15.553 177,15 L177,8 C177,7.447 176.553,7 176,7 L176,7 Z M167,3 L171,3 L171,7 L167,7 L167,3 Z M166,14 L172,14 L172,15 L166,15 L166,14 Z M175,14 L174,14 L174,13 C174,12.447 173.553,12 173,12 L165,12 C164.447,12 164,12.447 164,13 L164,14 L163,14 L163,9 L175,9 L175,14 L175,14 Z" id="Imported-Layers" sketch:type="MSShapeGroup"></path>
        </g>
    </g>
</svg>