<?xml version="1.0" encoding="UTF-8" standalone="no"?>
<svg width="16px" height="16px" viewBox="0 0 16 16" version="1.1" xmlns="http://www.w3.org/2000/svg" xmlns:xlink="http://www.w3.org/1999/xlink" xmlns:sketch="http://www.bohemiancoding.com/sketch/ns">
    <!-- Generator: Sketch 3.3.1 (12002) - http://www.bohemiancoding.com/sketch -->
    <title>Fill 2 Copy</title>
    <desc>Created with Sketch.</desc>
    <defs></defs>
    <g id="invoices-page" stroke="none" stroke-width="1" fill="none" fill-rule="evenodd" sketch:type="MSPage">
        <g id="icon-copy" sketch:type="MSLayerGroup" transform="translate(-53.000000, 0.000000)" fill="#FFFFFF">
            <path d="M68,3 L64,3 C64,0.799 62.206,0 61,0 C58.799,0 58,1.794 58,3 L54,3 C53.447,3 53,3.4475 53,4 C53,4.5525 53.447,5 54,5 L55,5 L55,15 C55,15.5525 55.447,16 56,16 L66,16 C66.5525,16 67,15.5525 67,15 L67,5 L68,5 C68.5525,5 69,4.5525 69,4 C69,3.4475 68.5525,3 68,3 L68,3 Z M60.9885,2 C61.45,2.0115 62,2.195 62,3 L60,3 C60.0145,2.541 60.201,2 60.9885,2 L60.9885,2 Z M57,5 L65,5 L65,14 L57,14 L57,5 Z M59,6 C58.447,6 58,6.4475 58,7 L58,12 C58,12.5525 58.447,13 59,13 C59.5525,13 60,12.5525 60,12 L60,7 C60,6.4475 59.5525,6 59,6 Z M62,7 L62,12 C62,12.5525 62.447,13 63,13 C63.5525,13 64,12.5525 64,12 L64,7 C64,6.4475 63.5525,6 63,6 C62.447,6 62,6.4475 62,7 Z" id="Fill-2-Copy" sketch:type="MSShapeGroup"></path>
        </g>
    </g>
</svg>