<?xml version="1.0" encoding="UTF-8" standalone="no"?>
<svg width="20px" height="20px" viewBox="0 0 20 20" version="1.1" xmlns="http://www.w3.org/2000/svg" xmlns:xlink="http://www.w3.org/1999/xlink" xmlns:sketch="http://www.bohemiancoding.com/sketch/ns">
    <!-- Generator: Sketch 3.3.1 (12002) - http://www.bohemiancoding.com/sketch -->
    <title>Rectangle 71 Copy 2</title>
    <desc>Created with Sketch.</desc>
    <defs></defs>
    <g id="invoices-page" stroke="none" stroke-width="1" fill="none" fill-rule="evenodd" sketch:type="MSPage">
        <path d="M9,5.10001812 L9,0 L9,0 L0.99180311,0 C0.455305576,0 0,0.444045377 0,0.99180311 L0,19.0081969 C0,19.5446944 0.444045377,20 0.99180311,20 L9,20 L9,20 L9,14.8999819 C6.71775968,14.4367116 5,12.4189579 5,10 C5,7.58104209 6.71775968,5.56328845 9,5.10001812 L9,5.10001812 Z M11,5.10001812 L11,0 L19.0081969,0 C19.5559546,0 20,0.455305576 20,0.99180311 L20,19.0081969 C20,19.5559546 19.5446944,20 19.0081969,20 L11,20 L11,14.8999819 C13.2822403,14.4367116 15,12.4189579 15,10 C15,7.58104209 13.2822403,5.56328845 11,5.10001812 L11,5.10001812 Z M10,13 C11.6568542,13 13,11.6568542 13,10 C13,8.34314575 11.6568542,7 10,7 C8.34314575,7 7,8.34314575 7,10 C7,11.6568542 8.34314575,13 10,13 Z" id="Rectangle-71-Copy-2" fill="#FFFFFF" sketch:type="MSShapeGroup"></path>
    </g>
</svg>