<?xml version="1.0" encoding="UTF-8" standalone="no"?>
<svg width="15px" height="15px" viewBox="0 0 15 15" version="1.1" xmlns="http://www.w3.org/2000/svg" xmlns:xlink="http://www.w3.org/1999/xlink" xmlns:sketch="http://www.bohemiancoding.com/sketch/ns">
    <!-- Generator: Sketch 3.3.1 (12002) - http://www.bohemiancoding.com/sketch -->
    <title>Fill 4 Copy 2</title>
    <desc>Created with Sketch.</desc>
    <defs></defs>
    <g id="Companies-page" stroke="none" stroke-width="1" fill="none" fill-rule="evenodd" sketch:type="MSPage">
        <g id="icons-copy" sketch:type="MSLayerGroup" transform="translate(-0.037691, -85.000000)" fill="#FFFFFF">
            <path d="M14.9310941,98.6916567 C14.7403137,97.7504109 13.7882867,93.8954284 10.9603308,92.7957459 C11.7056399,91.9665309 12.1729816,90.8818483 12.1729816,89.6818538 C12.1729816,87.1004592 10.0720536,85 7.49065904,85 C4.90973324,85 2.80880527,87.1004592 2.80880527,89.6818538 C2.80880527,90.9277856 3.30661551,92.0551243 4.10301815,92.8951205 C1.65006052,94.1790209 0.227879469,98.2116589 0.0488177807,98.7488439 C-0.0477442816,99.0347801 0.00100549743,99.3483725 0.176785951,99.5925901 C0.353035152,99.8368077 0.635221372,99.9816508 0.936626256,99.9816508 L14.0451606,99.9816508 C14.051723,99.9821196 14.0587543,99.9816508 14.0634417,99.9816508 C14.5809394,99.9816508 15,99.5621215 15,99.0450926 C15,98.9199369 14.9760939,98.8008749 14.9310941,98.6916567 L14.9310941,98.6916567 Z M7.49065904,86.8726478 C9.03987077,86.8726478 10.2998651,88.132642 10.2998651,89.6818538 C10.2998651,91.2305968 9.03987077,92.490591 7.49065904,92.490591 C5.94191606,92.490591 4.68192178,91.2305968 4.68192178,89.6818538 C4.68192178,88.132642 5.94191606,86.8726478 7.49065904,86.8726478 L7.49065904,86.8726478 Z M2.31521376,98.1090031 C3.07177283,96.4346357 4.356142,94.3660513 5.61801128,94.3660513 L9.36377555,94.3660513 C11.3836101,94.3660513 12.4087617,96.683072 12.8475098,98.1090031 L2.31521376,98.1090031 L2.31521376,98.1090031 Z" id="Fill-4-Copy-2" sketch:type="MSShapeGroup"></path>
        </g>
    </g>
</svg>