<?xml version="1.0" encoding="UTF-8" standalone="no"?>
<svg width="16px" height="15px" viewBox="0 0 16 15" version="1.1" xmlns="http://www.w3.org/2000/svg" xmlns:xlink="http://www.w3.org/1999/xlink" xmlns:sketch="http://www.bohemiancoding.com/sketch/ns">
    <!-- Generator: Sketch 3.3.1 (12002) - http://www.bohemiancoding.com/sketch -->
    <title>Fill 3 Copy 2</title>
    <desc>Created with Sketch.</desc>
    <defs></defs>
    <g id="Companies-page" stroke="none" stroke-width="1" fill="none" fill-rule="evenodd" sketch:type="MSPage">
        <g id="icons-copy" sketch:type="MSLayerGroup" transform="translate(0.962309, -43.000000)" fill="#FFFFFF">
            <path d="M7.5,42.9818592 C3.358125,42.9818592 0,46.3418592 0,50.4818592 C0,54.6246717 3.358125,57.9818592 7.5,57.9818592 C11.6428125,57.9818592 15,54.6246717 15,50.4818592 C15,46.3418592 11.6428125,42.9818592 7.5,42.9818592 L7.5,42.9818592 Z M9.5784375,45.2595154 C9.58265625,45.9424842 9.406875,46.7993592 8.84859375,47.4598279 C8.206875,48.2192029 7.8825,48.2740467 7.8853125,48.2848279 C7.7671875,48.2117029 7.59796875,47.8034217 7.5834375,47.5531092 C7.52203125,46.5073279 6.9121875,45.6045154 6.34921875,44.9759217 C6.7209375,44.8985779 7.1053125,44.8568592 7.5,44.8568592 C8.2340625,44.8568592 8.934375,45.0021717 9.5784375,45.2595154 L9.5784375,45.2595154 Z M4.47328125,45.7479529 C4.914375,46.1360779 5.67,46.9399842 5.71171875,47.6632654 C5.75765625,48.4320154 6.21375,49.7046717 7.28484375,50.0609217 C7.47421875,50.1237342 7.666875,50.1556092 7.86140625,50.1556092 C8.634375,50.1556092 9.4453125,49.6577967 10.280625,48.6701404 C10.8665625,47.9773279 11.1904687,47.1682654 11.3460937,46.3887342 C12.0923438,47.0899842 12.6454688,47.9904529 12.9225,49.0071717 C11.8846875,49.2795154 10.3978125,49.9259217 9.87234375,51.4423279 C9.74859375,51.6420154 8.990625,52.0146717 8.48859375,52.2612342 L8.0953125,52.4557654 C7.10625,52.9507654 6.5971875,54.5867029 6.5146875,56.0149842 C5.95171875,55.9146717 5.41734375,55.7318592 4.9246875,55.4768592 C6.1696875,53.9984217 6.2109375,51.9527967 5.7103125,50.7312342 C5.29078125,49.7093592 3.58265625,48.6902967 2.4159375,48.0902967 C2.87015625,47.1298279 3.585,46.3179529 4.47328125,45.7479529 L4.47328125,45.7479529 Z M1.875,50.4818592 C1.875,50.3004529 1.88484375,50.1209217 1.90265625,49.9437342 C2.94609375,50.5193592 3.83671875,51.1498279 3.9759375,51.4427967 C4.183125,51.9485779 4.31015625,53.3534217 3.41390625,54.3363904 C2.4628125,53.3281092 1.875,51.9743592 1.875,50.4818592 L1.875,50.4818592 Z M8.38546875,56.0299842 C8.45109375,55.1463904 8.73796875,54.3040467 8.93390625,54.1329529 L9.31546875,53.9440467 C10.3959375,53.4129529 11.3296875,52.9540467 11.6325,52.0821717 C11.8514063,51.4545154 12.5142188,51.1052967 13.1029688,50.9112342 C12.9051563,53.5165467 10.9279687,55.6254529 8.38546875,56.0299842 L8.38546875,56.0299842 Z" id="Fill-3-Copy-2" sketch:type="MSShapeGroup"></path>
        </g>
    </g>
</svg>