<?xml version="1.0" encoding="UTF-8" standalone="no"?>
<svg width="16px" height="15px" viewBox="0 0 16 15" version="1.1" xmlns="http://www.w3.org/2000/svg" xmlns:xlink="http://www.w3.org/1999/xlink" xmlns:sketch="http://www.bohemiancoding.com/sketch/ns">
    <!-- Generator: Sketch 3.3.1 (12002) - http://www.bohemiancoding.com/sketch -->
    <title>Fill 1</title>
    <desc>Created with Sketch.</desc>
    <defs></defs>
    <g id="Companies-page" stroke="none" stroke-width="1" fill="none" fill-rule="evenodd" sketch:type="MSPage">
        <g id="icons-copy" sketch:type="MSLayerGroup" transform="translate(0.962309, 0.000000)" fill="#FFFFFF">
            <path d="M14.0625,13.125 L1.875,13.125 L1.875,0.9375 C1.875,0.41953125 1.45546875,0 0.9375,0 C0.4190625,0 0,0.41953125 0,0.9375 L0,14.0625 C0,14.5804687 0.4190625,15 0.9375,15 L14.0625,15 C14.5804687,15 15,14.5804687 15,14.0625 C15,13.5445313 14.5804687,13.125 14.0625,13.125 Z M3.75,12.1875 C4.26796875,12.1875 4.6875,11.7679687 4.6875,11.25 L4.6875,2.8125 C4.6875,2.29453125 4.26796875,1.875 3.75,1.875 C3.2315625,1.875 2.8125,2.29453125 2.8125,2.8125 L2.8125,11.25 C2.8125,11.7679687 3.2315625,12.1875 3.75,12.1875 Z M6.5625,12.1875 C7.08046875,12.1875 7.5,11.7679688 7.5,11.25 L7.5,5.625 C7.5,5.10703125 7.08046875,4.6875 6.5625,4.6875 C6.0440625,4.6875 5.625,5.10703125 5.625,5.625 L5.625,11.25 C5.625,11.7679688 6.0440625,12.1875 6.5625,12.1875 Z M9.375,12.1875 C9.89296875,12.1875 10.3125,11.7679687 10.3125,11.25 L10.3125,3.75 C10.3125,3.23203125 9.89296875,2.8125 9.375,2.8125 C8.85703125,2.8125 8.4375,3.23203125 8.4375,3.75 L8.4375,11.25 C8.4375,11.7679687 8.85703125,12.1875 9.375,12.1875 Z M12.1875,12.1875 C12.7054687,12.1875 13.125,11.7679687 13.125,11.25 L13.125,7.5 C13.125,6.98203125 12.7054687,6.5625 12.1875,6.5625 C11.6695313,6.5625 11.25,6.98203125 11.25,7.5 L11.25,11.25 C11.25,11.7679687 11.6695313,12.1875 12.1875,12.1875 Z" id="Fill-1" sketch:type="MSShapeGroup"></path>
        </g>
    </g>
</svg>