<?xml version="1.0" encoding="UTF-8" standalone="no"?>
<svg width="91px" height="20px" viewBox="0 0 91 20" version="1.1" xmlns="http://www.w3.org/2000/svg" xmlns:xlink="http://www.w3.org/1999/xlink" xmlns:sketch="http://www.bohemiancoding.com/sketch/ns">
    <!-- Generator: Sketch 3.3.1 (12002) - http://www.bohemiancoding.com/sketch -->
    <title>Rectangle 71 Copy 2</title>
    <desc>Created with Sketch.</desc>
    <defs></defs>
    <g id="invoices-page" stroke="none" stroke-width="1" fill="none" fill-rule="evenodd" sketch:type="MSPage">
        <path d="M43,5.10001812 L43,0 L34.9918031,0 C34.4553056,0 34,0.444045377 34,0.99180311 L34,19.0081969 C34,19.5446944 34.4440454,20 34.9918031,20 L43,20 L43,20 L43,14.8999819 C40.7177597,14.4367116 39,12.4189579 39,10 C39,7.58104209 40.7177597,5.56328845 43,5.10001812 L43,5.10001812 Z M45,5.10001812 L45,0 L53.0081969,0 C53.5559546,0 54,0.455305576 54,0.99180311 L54,19.0081969 C54,19.5559546 53.5446944,20 53.0081969,20 L45,20 L45,14.8999819 C47.2822403,14.4367116 49,12.4189579 49,10 C49,7.58104209 47.2822403,5.56328845 45,5.10001812 L45,5.10001812 Z M44,13 C45.6568542,13 47,11.6568542 47,10 C47,8.34314575 45.6568542,7 44,7 C42.3431458,7 41,8.34314575 41,10 C41,11.6568542 42.3431458,13 44,13 Z M2.44,2.66 L2.44,16.5 L0.96,16.5 L0.96,2.66 L2.44,2.66 Z M8.26,2.66 L15.3,14.62 L15.3,2.66 L16.78,2.66 L16.78,16.5 L14.8,16.5 L7.76,4.54 L7.76,16.5 L6.28,16.5 L6.28,2.66 L8.26,2.66 Z M24.22,14.58 L28.18,2.66 L29.8,2.66 L25.18,16.5 L23.34,16.5 L18.64,2.66 L20.26,2.66 L24.22,14.58 Z M62.32,2.66 L62.32,16.5 L60.84,16.5 L60.84,2.66 L62.32,2.66 Z M67.66,9.4 C67.66,10.4533386 67.7966653,11.3699961 68.07,12.15 C68.3433347,12.9300039 68.7033311,13.5733308 69.15,14.08 C69.5966689,14.5866692 70.0999972,14.9666654 70.66,15.22 C71.2200028,15.4733346 71.7933304,15.6 72.38,15.6 C72.980003,15.6 73.5266642,15.4900011 74.02,15.27 C74.5133358,15.0499989 74.9399982,14.7600018 75.3,14.4 C75.6600018,14.0399982 75.9566655,13.6300023 76.19,13.17 C76.4233345,12.7099977 76.5866662,12.2400024 76.68,11.76 L78.18,11.76 C78.046666,12.4800036 77.8233349,13.1499969 77.51,13.77 C77.1966651,14.3900031 76.7933358,14.933331 76.3,15.4 C75.8066642,15.866669 75.2333366,16.233332 74.58,16.5 C73.9266634,16.766668 73.1933374,16.9 72.38,16.9 C71.4333286,16.9 70.5800038,16.7300017 69.82,16.39 C69.0599962,16.0499983 68.4100027,15.5566699 67.87,14.91 C67.3299973,14.2633301 66.9133348,13.4766713 66.62,12.55 C66.3266652,11.6233287 66.18,10.5666726 66.18,9.38 C66.18,8.4733288 66.3199986,7.5900043 66.6,6.73 C66.8800014,5.8699957 67.2833307,5.1100033 67.81,4.45 C68.3366693,3.7899967 68.9833295,3.260002 69.75,2.86 C70.5166705,2.459998 71.3866618,2.26 72.36,2.26 C73.1866708,2.26 73.9233301,2.3699989 74.57,2.59 C75.2166699,2.8100011 75.7799976,3.1133314 76.26,3.5 C76.7400024,3.8866686 77.1399984,4.346664 77.46,4.88 C77.7800016,5.413336 78.0333324,5.9999968 78.22,6.64 L76.66,6.64 C76.2999982,5.5999948 75.7700035,4.8266692 75.07,4.32 C74.3699965,3.8133308 73.4666722,3.56 72.36,3.56 C71.6666632,3.56 71.0333362,3.7166651 70.46,4.03 C69.8866638,4.3433349 69.3933354,4.7699973 68.98,5.31 C68.5666646,5.8500027 68.2433345,6.4733298 68.01,7.18 C67.7766655,7.8866702 67.66,8.6266628 67.66,9.4 L67.66,9.4 Z M90.52,2.66 L90.52,4 L82.76,4 L82.76,8.68 L90.06,8.68 L90.06,10.02 L82.76,10.02 L82.76,15.16 L90.86,15.16 L90.86,16.5 L81.28,16.5 L81.28,2.66 L90.52,2.66 Z" id="Rectangle-71-Copy-2" fill="#FFFFFF" sketch:type="MSShapeGroup"></path>
    </g>
</svg>