<?xml version="1.0" encoding="UTF-8" standalone="no"?>
<svg width="16px" height="15px" viewBox="0 0 16 15" version="1.1" xmlns="http://www.w3.org/2000/svg" xmlns:xlink="http://www.w3.org/1999/xlink" xmlns:sketch="http://www.bohemiancoding.com/sketch/ns">
    <!-- Generator: Sketch 3.3.1 (12002) - http://www.bohemiancoding.com/sketch -->
    <title>Fill 5 Copy 2</title>
    <desc>Created with Sketch.</desc>
    <defs></defs>
    <g id="Companies-page" stroke="none" stroke-width="1" fill="none" fill-rule="evenodd" sketch:type="MSPage">
        <g id="icons-copy" sketch:type="MSLayerGroup" transform="translate(0.962309, -130.000000)" fill="#FFFFFF">
            <path d="M14.0625,130 L0.9375,130 C0.41953125,130 0,130.419062 0,130.9375 L0,144.0625 C0,144.580469 0.41953125,145 0.9375,145 L14.0625,145 C14.5804688,145 15,144.580469 15,144.0625 L15,130.9375 C15,130.419062 14.5804688,130 14.0625,130 L14.0625,130 Z M1.875,131.875 L13.125,131.875 L13.125,143.125 L1.875,143.125 L1.875,131.875 Z M3.75,133.749063 L5.625,133.749063 L5.625,135.624063 L3.75,135.624063 L3.75,133.749063 Z M6.5625,133.749063 L11.25,133.749063 L11.25,135.624063 L6.5625,135.624063 L6.5625,133.749063 Z M3.75,136.561563 L5.625,136.561563 L5.625,138.436563 L3.75,138.436563 L3.75,136.561563 Z M6.5625,136.561563 L11.25,136.561563 L11.25,138.436563 L6.5625,138.436563 L6.5625,136.561563 Z M3.75,139.374063 L5.625,139.374063 L5.625,141.249063 L3.75,141.249063 L3.75,139.374063 Z M6.5625,139.374063 L11.25,139.374063 L11.25,141.249063 L6.5625,141.249063 L6.5625,139.374063 Z" id="Fill-5-Copy-2" sketch:type="MSShapeGroup"></path>
        </g>
    </g>
</svg>