<?xml version="1.0" encoding="UTF-8" standalone="no"?>
<svg width="16px" height="15px" viewBox="0 0 16 15" version="1.1" xmlns="http://www.w3.org/2000/svg" xmlns:xlink="http://www.w3.org/1999/xlink" xmlns:sketch="http://www.bohemiancoding.com/sketch/ns">
    <!-- Generator: Sketch 3.3.1 (12002) - http://www.bohemiancoding.com/sketch -->
    <title>Fill 1</title>
    <desc>Created with Sketch.</desc>
    <defs></defs>
    <g id="Companies-page" stroke="none" stroke-width="1" fill="none" fill-rule="evenodd" sketch:type="MSPage">
        <g id="icons-copy" sketch:type="MSLayerGroup" transform="translate(0.962309, -170.000000)" fill="#FFFFFF">
            <path d="M14.9414062,179.082031 L14.9517188,179.078281 L12.1392188,170.640781 C12.0117188,170.258281 11.6535938,170 11.25,170 L3.75,170 C3.34640625,170 2.98828125,170.258281 2.86125,170.640781 L0.04875,179.078281 L0.05953125,179.082031 C0.02765625,179.175312 0,179.270938 0,179.375 L0,184.0625 C0,184.58 0.4190625,185 0.9375,185 L14.0625,185 C14.5809375,185 15,184.58 15,184.0625 L15,179.375 C15,179.270938 14.9723438,179.175312 14.9414062,179.082031 L14.9414062,179.082031 Z M4.42546875,171.875 L10.5745313,171.875 L12.7626563,178.4375 L9.375,178.4375 C8.8565625,178.4375 8.4375,178.857031 8.4375,179.375 C8.4375,180.129687 7.921875,180.301719 7.5,180.3125 C6.74484375,180.3125 6.57328125,179.796406 6.5625,179.375 C6.5625,178.857031 6.1434375,178.4375 5.625,178.4375 L2.23734375,178.4375 L4.42546875,171.875 L4.42546875,171.875 Z M13.125,183.125 L1.875,183.125 L1.875,180.3125 L4.8440625,180.3125 C5.15625,181.255625 5.96390625,182.1875 7.5,182.1875 C8.439375,182.1875 9.7584375,181.670938 10.1789063,180.3125 L13.125,180.3125 L13.125,183.125 Z" id="Fill-1" sketch:type="MSShapeGroup"></path>
        </g>
    </g>
</svg>