<?xml version="1.0" encoding="UTF-8" standalone="no"?>
<svg width="16px" height="15px" viewBox="0 0 16 15" version="1.1" xmlns="http://www.w3.org/2000/svg" xmlns:xlink="http://www.w3.org/1999/xlink" xmlns:sketch="http://www.bohemiancoding.com/sketch/ns">
    <!-- Generator: Sketch 3.3.1 (12002) - http://www.bohemiancoding.com/sketch -->
    <title>Fill 12 Copy 2</title>
    <desc>Created with Sketch.</desc>
    <defs></defs>
    <g id="Companies-page" stroke="none" stroke-width="1" fill="none" fill-rule="evenodd" sketch:type="MSPage">
        <g id="icons-copy" sketch:type="MSLayerGroup" transform="translate(0.962309, -211.000000)" fill="#FFFFFF">
            <path d="M14.0634375,216.158125 L13.1521875,216.158125 L13.7967187,215.513594 C13.9725,215.337812 14.0709375,215.099688 14.0709375,214.85125 C14.0709375,214.603281 13.9725,214.365156 13.7967187,214.189375 L11.8092188,212.202344 C11.4440625,211.836719 10.8510938,211.836719 10.4854687,212.202344 L9.8409375,212.846875 L9.8409375,211.936563 C9.8409375,211.419062 9.42234375,211 8.904375,211 L6.095625,211 C5.57765625,211 5.1590625,211.419062 5.1590625,211.936563 L5.1590625,212.848281 L4.51359375,212.202812 C4.14796875,211.838125 3.555,211.837656 3.18984375,212.203281 L1.20328125,214.189375 C0.83765625,214.555 0.83765625,215.147969 1.20328125,215.513594 L1.8478125,216.158594 L0.935625,216.159063 C0.4190625,216.159531 0,216.578125 0,217.095625 L0,219.904375 C0,220.421875 0.4190625,220.840937 0.9365625,220.840937 L1.846875,220.840937 L1.20328125,221.485469 C0.83765625,221.851094 0.83765625,222.444063 1.20328125,222.809687 L3.18984375,224.796719 C3.36515625,224.9725 3.60234375,225.070938 3.85171875,225.070938 C4.10015625,225.070938 4.3378125,224.9725 4.51359375,224.796719 L5.1590625,224.151719 L5.1590625,225.063906 C5.1590625,225.580938 5.57859375,226 6.095625,226 L8.904375,226 C9.42234375,226 9.8409375,225.580469 9.8409375,225.063437 L9.8409375,224.151719 L10.4864063,224.797188 C10.8520313,225.161875 11.445,225.162344 11.8101562,224.796719 L13.7967187,222.809687 C14.1623437,222.444063 14.1623437,221.851094 13.7967187,221.485469 L13.1521875,220.840937 L14.0634375,220.840937 C14.5809375,220.840937 15,220.421875 15,219.904375 L15,217.094687 C15,216.577188 14.5809375,216.158125 14.0634375,216.158125 L14.0634375,216.158125 Z M13.1273437,218.968281 L12.1903125,218.968281 C11.8110938,218.968281 11.4703125,219.196094 11.325,219.545781 L10.9448438,220.464063 C10.7990625,220.81375 10.8796875,221.216875 11.1473438,221.484531 L11.8101562,222.147813 L11.1482813,222.810625 L10.4845313,222.147344 C10.216875,221.880156 9.81421875,221.800469 9.4640625,221.944844 L8.54578125,222.325 C8.195625,222.469844 7.96828125,222.811563 7.96828125,223.189844 L7.96828125,224.127344 L7.03078125,224.127344 L7.03078125,223.189375 C7.03078125,222.811094 6.8025,222.469844 6.45328125,222.325 L5.535,221.944844 C5.184375,221.8 4.783125,221.879688 4.51453125,222.147813 L3.85171875,222.810156 L3.18984375,222.147813 L3.85171875,221.484531 C4.119375,221.216875 4.2,220.81375 4.05421875,220.464063 L3.6740625,219.545781 C3.52875,219.196094 3.18796875,218.968281 2.80875,218.968281 L1.87265625,218.968281 L1.87265625,218.03125 L2.80875,218.030781 C3.18890625,218.030781 3.5296875,217.8025 3.6740625,217.452812 L4.05421875,216.533594 C4.2,216.183906 4.119375,215.780781 3.85171875,215.513594 L3.18984375,214.85125 L3.85171875,214.189375 L4.51453125,214.851719 C4.783125,215.119844 5.1853125,215.200469 5.535,215.054219 L6.45421875,214.674062 C6.8034375,214.529219 7.03171875,214.187969 7.03171875,213.809219 L7.03171875,212.872656 L7.96828125,212.872656 L7.96828125,213.809219 C7.96828125,214.1875 8.195625,214.529219 8.54578125,214.674062 L9.4640625,215.054219 C9.81421875,215.199531 10.2159375,215.119844 10.4845313,214.85125 L11.1473438,214.188437 L11.8101562,214.85125 L11.1473438,215.514531 C10.8796875,215.782187 10.7990625,216.184844 10.9448438,216.535 L11.325,217.453281 C11.4703125,217.802969 11.8110938,218.030781 12.1903125,218.030781 L13.1273437,218.030781 L13.1273437,218.968281 Z M7.4990625,215.682813 C5.94984375,215.682813 4.6903125,216.942813 4.6903125,218.491562 C4.6903125,220.040781 5.94984375,221.300781 7.4990625,221.300781 C9.04828125,221.300781 10.3078125,220.040781 10.3078125,218.491562 C10.3078125,216.942813 9.04828125,215.682813 7.4990625,215.682813 Z M7.4990625,219.428125 C6.98203125,219.428125 6.5625,219.007656 6.5625,218.491563 C6.5625,217.975469 6.98203125,217.555469 7.4990625,217.555469 C8.01609375,217.555469 8.435625,217.975469 8.435625,218.491563 C8.435625,219.007656 8.01609375,219.428125 7.4990625,219.428125 L7.4990625,219.428125 Z" id="Fill-12-Copy-2" sketch:type="MSShapeGroup"></path>
        </g>
    </g>
</svg>